<?xml version="1.0" encoding="UTF-8"?>
<svg width="32px" height="32px" viewBox="0 0 32 32" version="1.1" xmlns="http://www.w3.org/2000/svg" xmlns:xlink="http://www.w3.org/1999/xlink">
    <!-- Generator: Sketch 61.2 (89653) - https://sketch.com -->
    <title>Integrations/Logotypes/Active/Beamer</title>
    <desc>Created with Sketch.</desc>
    <g id="Integrations/Logotypes/Active/Beamer" stroke="none" stroke-width="1" fill="none" fill-rule="evenodd">
        <path d="M30.7986263,22.6741221 C31.2549614,23.7850568 30.7152677,25.0527916 29.594201,25.5050589 L13.8805645,31.8389331 C13.6101833,31.9477333 13.3307181,32 13.0560621,32 C12.1898804,32 11.3707215,31.4885327 11.024997,30.6447984 C10.5686619,29.5338637 11.1083556,28.2661288 12.2294223,27.8133283 L27.9425245,21.479454 C29.0641256,21.0277201 30.3428256,21.5621208 30.7986263,22.6741221 Z M30.8344278,14.0623784 C31.2950377,15.1722464 30.7617562,16.4421146 29.6422925,16.8986485 L4.02714666,27.3546611 C3.7540937,27.4655945 3.47142244,27.5189279 3.19302598,27.5189279 C2.33165345,27.5189279 1.51409764,27.0122607 1.1657013,26.1733263 C0.705091423,25.0639917 1.23890728,23.7941235 2.35783661,23.3375896 L27.9729824,12.879977 C29.0919118,12.4239765 30.3738179,12.9525104 30.8344278,14.0623784 Z M30.8344278,5.77916846 C31.2950377,6.88850313 30.7617562,8.15837132 29.6422925,8.61543854 L4.02714666,19.0709178 C3.7540937,19.1829179 3.47142244,19.2351846 3.19302598,19.2351846 C2.33165345,19.2351846 1.51409764,18.7290507 1.1657013,17.889583 C0.705091423,16.7802484 1.23890728,15.5098468 2.35783661,15.0533129 L27.9729824,4.59730037 C29.0919118,4.14023315 30.3738179,4.66983379 30.8344278,5.77916846 Z M20.9361246,1.35516314 C21.3924597,2.46609781 20.8527659,3.73383267 19.7316992,4.18609988 L4.0180627,10.5199742 C3.7476815,10.6287743 3.46821634,10.6805077 3.19302598,10.6805077 C2.327913,10.6805077 1.50821978,10.1695737 1.16196085,9.32583939 C0.706160124,8.21437139 1.24531948,6.94716986 2.36638621,6.49490265 L18.0800227,0.160495034 C19.2016238,-0.291238842 20.4797895,0.2431618 20.9361246,1.35516314 Z" id="Combined-Shape" fill="#000000" fill-rule="nonzero"></path>
    </g>
</svg>