<?xml version="1.0" encoding="UTF-8"?>
<svg width="32px" height="32px" viewBox="0 0 32 32" version="1.1" xmlns="http://www.w3.org/2000/svg" xmlns:xlink="http://www.w3.org/1999/xlink">
    <!-- Generator: Sketch 61.2 (89653) - https://sketch.com -->
    <title>Integrations/Logotypes/Active/GetButton</title>
    <desc>Created with Sketch.</desc>
    <g id="Integrations/Logotypes/Active/GetButton" stroke="none" stroke-width="1" fill="none" fill-rule="evenodd">
        <path d="M30.0519083,14.1776435 C31.283835,15.6537917 32,17.417904 32,19.313023 C32,21.2935405 31.2178367,23.1309783 29.8822444,24.6461898 L31.8849161,29.4261553 C31.9535349,29.5899341 31.9088608,29.779272 31.7742683,29.8951034 C31.6382317,30.0121777 31.4442004,30.033533 31.2859578,29.9488474 L26.331798,27.2975623 C24.4944765,28.1939148 22.3244167,28.7115213 20,28.7115213 C17.2393312,28.7115213 14.6963963,27.9813909 12.6688209,26.7542329 C17.7134887,26.4801178 21.7359762,25.239628 24.7372813,23.032202 C27.6321684,20.903045 29.3834905,18.0771678 29.9912474,14.5545702 L30.0519083,14.1776435 Z M13.5,2 C20.9558441,2 27,6.87224851 27,12.8824716 C27,18.8926947 20.9558441,23.7649432 13.5,23.7649432 C13.0446625,23.7649432 12.4120907,23.7251999 11.6022846,23.6457131 C11.2897115,23.6150294 10.9808835,23.7329812 10.7683458,23.9642196 L5.90070576,29.2601514 C5.7464048,29.4280289 5.50944056,29.4924331 5.29139044,29.4257563 C5.08976919,29.3641033 4.96916547,29.1580863 5.01410565,28.9520946 L7.1146578,19.3238196 C7.23238258,18.7842307 7.76523727,18.4422373 8.30482722,18.5599569 C8.35813171,18.571586 8.4103951,18.587558 8.46109409,18.6077129 C10.4734172,19.4076915 12.1530525,19.8076808 13.5,19.8076808 C18.9065958,19.8076808 23,16.5079508 23,12.8824716 C23,9.25699245 18.9065958,5.95726241 13.5,5.95726241 C8.09340425,5.95726241 4,9.25699245 4,12.8824716 C4,13.4321515 4.19695835,14.1521941 4.59087506,15.0425992 C4.81431715,15.5476655 4.58601568,16.1382384 4.08094937,16.3616805 C4.04712899,16.3766427 4.01250464,16.3897173 3.97723592,16.4008439 L2.04829406,17.0093897 C1.53867682,17.1701488 0.992712886,16.9018467 0.808642941,16.400178 C0.269547647,14.9309147 3.55271368e-15,13.7583459 3.55271368e-15,12.8824716 C3.55271368e-15,6.87224851 6.04415588,2 13.5,2 Z" id="Combined-Shape" fill="#FF6450" fill-rule="nonzero"></path>
    </g>
</svg>