<?xml version="1.0" encoding="UTF-8"?>
<svg width="32px" height="32px" viewBox="0 0 32 32" version="1.1" xmlns="http://www.w3.org/2000/svg" xmlns:xlink="http://www.w3.org/1999/xlink">
    <!-- Generator: Sketch 61.2 (89653) - https://sketch.com -->
    <title>Integrations/Logotypes/Active/Google Tag manager</title>
    <desc>Created with Sketch.</desc>
    <g id="Integrations/Logotypes/Active/Google-Tag-manager" stroke="none" stroke-width="1" fill="none" fill-rule="evenodd">
        <g id="Group" fill-rule="nonzero">
            <polygon id="Path" fill="#8AB4F8" points="18.3653333 30.0075556 12.9342222 24.7115556 24.5982222 12.8004444 30.2213333 18.3115556"></polygon>
            <path d="M18.3884444,6.59244444 L12.9768889,1.06711111 L1.144,12.788 C-0.381333333,14.3133333 -0.381333333,16.7862222 1.144,18.3133333 L12.7991111,30.0448889 L18.3102222,24.8893333 L9.43022222,15.5506667 L18.3884444,6.59244444 Z" id="Path" fill="#4285F4"></path>
            <path d="M30.1431111,12.8786667 L18.4097778,1.14533333 C16.8826667,-0.381777778 14.4062222,-0.381777778 12.8791111,1.14533333 C11.352,2.67244444 11.352,5.14888889 12.8791111,6.676 L24.6124444,18.4093333 C26.1395556,19.9364444 28.616,19.9364444 30.1431111,18.4093333 C31.6702222,16.8822222 31.6702222,14.4057778 30.1431111,12.8786667 Z" id="Path" fill="#8AB4F8"></path>
            <circle id="Oval" fill="#246FDB" cx="15.5546667" cy="27.4671111" r="3.82222222"></circle>
        </g>
    </g>
</svg>