<?xml version="1.0" encoding="UTF-8"?>
<svg width="32px" height="32px" viewBox="0 0 32 32" version="1.1" xmlns="http://www.w3.org/2000/svg" xmlns:xlink="http://www.w3.org/1999/xlink">
    <!-- Generator: Sketch 61.2 (89653) - https://sketch.com -->
    <title>Integrations/Logotypes/Active/Google Analytics</title>
    <desc>Created with Sketch.</desc>
    <g id="Integrations/Logotypes/Active/Google-Analytics" stroke="none" stroke-width="1" fill="none" fill-rule="evenodd">
        <path d="M23,3.81818182 L23,27.8181818 C23,30.5036364 24.9409524,32 27,32 C28.9047619,32 31,30.7272727 31,27.8181818 L31,4 C31,1.53818182 29.0952381,0 27,0 C24.9047619,0 23,1.69636364 23,3.81818182 Z" id="Path" fill="#F9AB00" fill-rule="nonzero"></path>
        <path d="M12,16.6605505 L12,27.9908257 C12,30.5654128 13.9409524,32 16,32 C17.9047619,32 20,30.7798165 20,27.9908257 L20,16.8348624 C20,14.4746789 18.0952381,13 16,13 C13.9047619,13 12,14.6263303 12,16.6605505 Z" id="Path" fill="#E37400" fill-rule="nonzero"></path>
        <circle id="Oval" fill="#E37400" fill-rule="nonzero" cx="5" cy="28" r="4"></circle>
    </g>
</svg>