<?xml version="1.0" encoding="UTF-8"?>
<svg width="32px" height="32px" viewBox="0 0 32 32" version="1.1" xmlns="http://www.w3.org/2000/svg" xmlns:xlink="http://www.w3.org/1999/xlink">
    <!-- Generator: Sketch 61.2 (89653) - https://sketch.com -->
    <title>Integrations/Logotypes/Active/JivoChat</title>
    <desc>Created with Sketch.</desc>
    <g id="Integrations/Logotypes/Active/JivoChat" stroke="none" stroke-width="1" fill="none" fill-rule="evenodd">
        <g id="Jivochat" transform="translate(12.500000, 0.000000)" fill-rule="nonzero">
            <path d="M0.0208642699,0 C-0.443580225,7.58887887 7,8.66666667 7,8.66666667 C6.62595074,0.357522835 0.0208642699,0 0.0208642699,0 Z" id="Path" fill="#08B357"></path>
            <path d="M6.23645436,10.6668952 L0.772656864,10.6668952 C0.573249662,10.6745268 0.385976002,10.7566611 0.254511387,10.8941431 C0.102503619,11.015632 0.012576163,11.1895576 0.00629798597,11.3742041 L0.00629798597,13.1325345 C0.0116459291,13.3214505 0.101360489,13.500098 0.254511387,13.6267986 C0.389293554,13.7582207 0.575824514,13.8349162 0.772656864,13.8398435 L3.56505763,13.8398435 L3.56505763,26.5089116 C3.56523459,27.6871809 2.60542652,28.6804829 1.32803435,28.8239992 L0.772656864,28.8239992 C0.56817485,28.8232017 0.372564643,28.9003948 0.232792715,29.0370441 C0.0814442636,29.1648465 -0.00320083512,29.3456693 9.26509332e-05,29.5341488 L9.26509332e-05,31.2924791 C0.00113034104,31.4749477 0.075073733,31.6507596 0.207971375,31.7867432 C0.351395363,31.9270805 0.553494329,32.0046064 0.763348859,32.0001942 L1.03328093,32.0001942 C4.17546311,31.9963299 6.7738347,29.7579521 6.9686839,26.8867112 C6.99151788,26.777204 7.00191548,26.6658277 6.99971057,26.5543612 L6.99971057,11.3742041 C7.00058163,11.1869939 6.91626686,11.0079061 6.7670105,10.8799401 C6.63374346,10.7399989 6.43917005,10.661868 6.23645436,10.6668952 Z" id="Path" fill="#352841"></path>
        </g>
    </g>
</svg>