<?xml version="1.0" encoding="UTF-8"?>
<svg width="32px" height="32px" viewBox="0 0 32 32" version="1.1" xmlns="http://www.w3.org/2000/svg" xmlns:xlink="http://www.w3.org/1999/xlink">
    <!-- Generator: Sketch 61.2 (89653) - https://sketch.com -->
    <title>Integrations/Logotypes/Active/Onesignal</title>
    <desc>Created with Sketch.</desc>
    <g id="Integrations/Logotypes/Active/Onesignal" stroke="none" stroke-width="1" fill="none" fill-rule="evenodd">
        <g id="onesignal" transform="translate(0.000000, 1.000000)" fill="#E44A49" fill-rule="nonzero">
            <path d="M16.043,0 C7.1975,0 0,7.32180278 0,16.3197835 C0,22.0537821 2.9485,27.0819346 7.284375,29.9930573 L8.064875,29.4638316 C8.23825,29.3755849 8.4985,29.1990916 8.671875,29.1109721 C8.932,29.0227254 9.19225,28.8462321 9.365625,28.7581126 C9.62575,28.6698659 9.886,28.5816193 10.146125,28.4052531 C10.3195,28.3170064 10.57975,28.2287598 10.753125,28.1405131 C11.01325,28.0523936 11.360125,27.9641469 11.620375,27.8759003 C11.880375,27.7876536 12.053875,27.7876536 12.314125,27.6995341 C12.574125,27.6112874 12.747625,27.6112874 13.007875,27.5230408 C13.267875,27.4347941 13.528125,27.4347941 13.78825,27.4347941 C14.0485,27.4347941 14.395375,27.3466746 14.6555,27.3466746 L14.6555,17.6429749 L13.78825,17.6429749 L13.78825,15.8786774 L18.12425,15.8786774 L18.12425,27.5230408 C20.552375,27.8759003 22.720375,28.7581126 24.714875,29.9930573 C29.1375,27.0819346 31.99925,22.0537821 31.99925,16.3197835 C32.086,7.32167562 24.88825,0 16.043,0 Z M20.8125,16.3197835 C20.8125,13.6732737 18.6445,11.4679972 16.043,11.4679972 C13.441375,11.4679972 11.2735,13.6732737 11.2735,16.3197835 C11.2735,18.1723277 12.314125,19.8483785 13.875,20.6423442 L13.875,21.6125488 C11.8805,20.7304637 10.40625,18.7015533 10.40625,16.3197835 C10.40625,13.1440481 12.921125,10.5857849 16.043,10.5857849 C19.164875,10.5857849 21.67975,13.1440481 21.67975,16.3197835 C21.67975,18.3486938 20.639125,20.1129913 19.078125,21.1715698 L19.078125,20.1129913 C20.11875,19.1426595 20.8125,17.8194682 20.8125,16.3197835 L20.8125,16.3197835 Z M19.078125,25.9352366 L19.078125,24.9647776 C22.633625,23.729833 25.1485,20.2894847 25.1485,16.2315369 C25.1485,11.2032572 21.072625,7.05718994 16.043,7.05718994 C11.01325,7.05718994 6.9375,11.2032572 6.9375,16.3197835 C6.9375,20.6423442 9.886,24.3473053 13.875,25.3176371 L13.875,26.1998494 C9.452375,25.2295176 6.070375,21.1715698 6.070375,16.3197835 C6.070375,10.6740316 10.492875,6.17510478 16.042875,6.17510478 C21.592875,6.17510478 26.015625,10.6739044 26.015625,16.3196564 C26.015625,20.8187103 23.06725,24.7001648 19.078125,25.9352366 Z" id="Shape"></path>
        </g>
    </g>
</svg>