<?xml version="1.0" encoding="UTF-8"?>
<svg width="32px" height="32px" viewBox="0 0 32 32" version="1.1" xmlns="http://www.w3.org/2000/svg" xmlns:xlink="http://www.w3.org/1999/xlink">
    <!-- Generator: Sketch 61.2 (89653) - https://sketch.com -->
    <title>Integrations/Logotypes/Active/Push alert</title>
    <desc>Created with Sketch.</desc>
    <g id="Integrations/Logotypes/Active/Push-alert" stroke="none" stroke-width="1" fill="none" fill-rule="evenodd">
        <path d="M20.6933333,29.2223152 C20.6933333,30.4568418 18.56,32 16,32 C13.44,32 11.3066667,30.4568418 11.3066667,29.2223152 L11.3066667,29.2223152 Z M15.7866667,0.00518656136 C17.7066667,-0.0976906523 19.4133333,1.34259034 19.52,3.19438018 L19.52,3.19438018 L19.52,5.25192446 C23.1466667,6.69220545 25.4933333,9.98427628 25.4933333,13.7907332 L25.4933333,13.7907332 L25.4933333,19.5518572 C25.4933333,21.7122786 26.3466667,23.8727001 28.0533333,25.3129811 L28.0533333,25.3129811 L28.1575926,25.394247 C28.5303704,25.7066293 28.7911111,26.1702912 28.6933333,26.5475077 C28.6933333,27.3705254 28.0533333,27.8849115 27.2,27.8849115 L27.2,27.8849115 L4.90666667,27.8849115 C4.48,27.8849115 4.05333333,27.679157 3.73333333,27.3705254 C3.2,26.7532621 3.30666667,25.9302444 3.94666667,25.4158583 L3.94666667,25.4158583 L4.16085149,25.202278 C5.63195592,23.6854381 6.50666667,21.7169549 6.50666667,19.6547344 L6.50666667,19.6547344 L6.50666667,13.7907332 C6.50666667,9.98427628 8.85333333,6.58932823 12.48,5.25192446 L12.48,5.25192446 L12.48,3.19438018 C12.5866667,1.44546755 13.9733333,0.108063775 15.7866667,0.00518656136 Z M5.76,2.26848526 L6.61333333,3.50301182 C3.94666667,5.14904724 2.13333333,7.8238548 1.6,10.9101712 L1.6,10.9101712 L0,10.6015396 C0.64,7.20659152 2.66666667,4.12027511 5.76,2.26848526 L5.76,2.26848526 Z M26.24,2.26848526 C29.3333333,4.12027511 31.36,7.20659152 32,10.4986624 L32,10.4986624 L30.4,10.807294 C29.8666667,7.8238548 28.0533333,5.14904724 25.3866667,3.50301182 L25.3866667,3.50301182 Z M16,1.44546755 C15.1466667,1.44546755 14.4,2.16560805 14.4,2.98862576 C14.4,3.81164347 15.1466667,4.53178396 16,4.53178396 C16.8533333,4.53178396 17.6,3.91452068 17.6,2.98862576 L17.6,2.98862576 L17.5931962,2.85251455 C17.5167078,2.08781509 16.8059259,1.44546755 16,1.44546755 Z" id="Combined-Shape" fill="#0E82E5" fill-rule="nonzero"></path>
    </g>
</svg>