<?xml version="1.0" encoding="UTF-8"?>
<svg width="32px" height="32px" viewBox="0 0 32 32" version="1.1" xmlns="http://www.w3.org/2000/svg" xmlns:xlink="http://www.w3.org/1999/xlink">
    <!-- Generator: Sketch 61.2 (89653) - https://sketch.com -->
    <title>Integrations/Logotypes/Active/Smartsupp</title>
    <desc>Created with Sketch.</desc>
    <g id="Integrations/Logotypes/Active/Smartsupp" stroke="none" stroke-width="1" fill="none" fill-rule="evenodd">
        <g id="Smartsup" transform="translate(0.000000, 4.000000)" fill-rule="nonzero">
            <path d="M7.38461538,0 C11.4630258,0 14.7692308,3.30620492 14.7692308,7.38461538 C14.7692308,11.4630258 11.4630258,14.7692308 7.38461538,14.7692308 C6.03954012,14.7692308 4.77845807,14.409613 3.69227125,13.7812796 L3.69230769,24 L0,24 L0,7.38461538 L0.00233837401,7.19693858 C0.101912153,3.20525807 3.3689497,0 7.38461538,0 Z M24.6153846,0 C28.6937951,0 32,3.30620492 32,7.38461538 C32,11.4630258 28.6937951,14.7692308 24.6153846,14.7692308 C23.2703094,14.7692308 22.0092273,14.409613 20.9230405,13.7812796 L20.9230769,24 L17.2307692,24 L17.2307692,7.38461538 L17.2331076,7.19693858 C17.3326814,3.20525807 20.599719,0 24.6153846,0 Z" id="Shape" fill="#3598DC"></path>
            <g id="Group" transform="translate(19.692308, 2.461538)">
                <circle id="Oval" fill="#EFEFEF" cx="4.92307692" cy="4.92307692" r="4.92307692"></circle>
                <path d="M4.53125,1.44290865 C5.89072015,1.44290865 6.99278843,2.54497696 6.99278843,3.90444711 C6.99278843,5.26391727 5.89072015,6.3659856 4.53125,6.3659856 C3.17177985,6.3659856 2.06971154,5.26391727 2.06971154,3.90444711 C2.06971154,3.49223527 2.17103502,3.10368879 2.35013487,2.76235478 L2.34715545,2.69471154 C2.34715545,3.20451284 2.76043106,3.61778846 3.27023237,3.61778846 C3.78003368,3.61778846 4.19330929,3.20451284 4.19330929,2.69471154 C4.19330929,2.1948374 3.79597209,1.78776633 3.29990173,1.7721024 C3.66154093,1.56306371 4.08236361,1.44290865 4.53125,1.44290865 Z" id="Path" fill="#2E2F30"></path>
            </g>
            <g id="Group" transform="translate(2.461538, 2.461538)">
                <circle id="Oval" fill="#EFEFEF" cx="4.92307692" cy="4.92307692" r="4.92307692"></circle>
                <path d="M4.53125,1.44290865 C5.89072015,1.44290865 6.99278843,2.54497696 6.99278843,3.90444711 C6.99278843,5.26391727 5.89072015,6.3659856 4.53125,6.3659856 C3.17177985,6.3659856 2.06971154,5.26391727 2.06971154,3.90444711 C2.06971154,3.49223527 2.17103502,3.10368879 2.35013487,2.76235478 L2.34715545,2.69471154 C2.34715545,3.20451284 2.76043106,3.61778846 3.27023237,3.61778846 C3.78003368,3.61778846 4.19330929,3.20451284 4.19330929,2.69471154 C4.19330929,2.1948374 3.79597209,1.78776633 3.29990173,1.7721024 C3.66154093,1.56306371 4.08236361,1.44290865 4.53125,1.44290865 Z" id="Path" fill="#2E2F30"></path>
            </g>
        </g>
    </g>
</svg>