<?xml version="1.0" encoding="UTF-8"?>
<svg width="32px" height="32px" viewBox="0 0 32 32" version="1.1" xmlns="http://www.w3.org/2000/svg" xmlns:xlink="http://www.w3.org/1999/xlink">
    <!-- Generator: Sketch 61.2 (89653) - https://sketch.com -->
    <title>Integrations/Logotypes/Active/Tawk.to</title>
    <desc>Created with Sketch.</desc>
    <defs>
        <path d="M0.413659137,2.71336054 C0.978897757,1.72155223 1.76800272,1.29385772 2.78097402,1.430277 C4.30043096,1.63490592 4.58440366,3.1046233 5.47628652,3.26390264 C6.36816937,3.42318198 6.36816937,0.312053146 3.80015498,0.0252227888 C2.08814538,-0.165997449 0.959313437,0.73004847 0.413659137,2.71336054 Z" id="path-1"></path>
        <path d="M-6.89303687e-14,2.71336054 C0.565238621,1.72155223 1.35434358,1.29385772 2.36731488,1.430277 C3.88677183,1.63490592 4.17074452,3.1046233 5.06262738,3.26390264 C5.95451023,3.42318198 5.95451023,0.312053146 3.38649584,0.0252227888 C1.67448624,-0.165997449 0.545654297,0.73004847 -6.89303687e-14,2.71336054 Z" id="path-3"></path>
        <path d="M0.0378621136,1.97283503 C-0.344112779,3.33813259 2.23672171,4.25411162 4.50441964,3.80160154 C5.65378266,3.57225073 7.70016757,2.88839563 10.6435743,1.75003623 C11.5717366,1.39107047 12.2300703,0.371521023 11.5528051,0.304887146 C8.40233446,-0.0050772588 6.05287259,-0.0786970024 4.50441964,0.0840279151 C1.6824276,0.380587407 0.419837006,0.607537467 0.0378621136,1.97283503 Z" id="path-5"></path>
        <path d="M13.2305643,12.1917908 L13.812362,9.83050253 C14.2237757,10.2609818 14.6819905,10.4966589 15.1870064,10.5375338 C15.6920223,10.5784087 16.3441697,10.4326019 17.1434485,10.1001135 C16.896989,10.8664023 16.4271695,11.4348202 15.7339902,11.8053672 C15.0903236,12.1494465 14.3248253,12.2850875 13.4374954,12.2122902 L13.2305643,12.1917908 L13.812362,9.83050253 L13.2305643,12.1917908 Z M11.7391304,2.73235717 C13.663835,2.79276803 15.2903423,3.37060432 16.6186523,4.46586603 C17.9469623,5.56112775 18.7549549,7.31942707 19.04263,9.74076395 C18.1682349,9.43906149 17.277779,9.28821022 16.371262,9.28821022 C15.4647452,9.28821022 14.631908,9.32670772 13.8727504,9.4037026 C13.8505477,8.08902589 13.7516296,7.06321489 13.5759961,6.32626956 C13.4003627,5.58932424 12.7880742,4.39135344 11.7391304,2.73235717 Z M3.05656274,0.380449588 C3.89631017,0.437464185 5.11149359,0.879853642 6.70211302,1.70761795 C3.4653556,6.03996616 1.43910284,7.89779442 0.623354705,7.28110263 C-0.192393427,6.66441091 0.00609524423,5.82683139 1.21882072,4.76836413 C0.626938926,4.76836413 0.330998029,4.45830173 0.330998029,3.83817694 C0.330998029,3.21805215 0.923622861,2.69494065 2.10887252,2.26884244 C1.28845387,2.26884244 0.878244548,2.0090385 0.878244548,1.4894306 C0.878244548,0.710018743 1.79694158,0.294927693 3.05656274,0.380449588 Z" id="path-7"></path>
        <path d="M13.2305643,12.1917908 L13.812362,9.83050253 C14.2237757,10.2609818 14.6819905,10.4966589 15.1870064,10.5375338 C15.6920223,10.5784087 16.3441697,10.4326019 17.1434485,10.1001135 C16.896989,10.8664023 16.4271695,11.4348202 15.7339902,11.8053672 C15.0903236,12.1494465 14.3248253,12.2850875 13.4374954,12.2122902 L13.2305643,12.1917908 L13.812362,9.83050253 L13.2305643,12.1917908 Z M11.7391304,2.73235717 C13.663835,2.79276803 15.2903423,3.37060432 16.6186523,4.46586603 C17.9469623,5.56112775 18.7549549,7.31942707 19.04263,9.74076395 C18.1682349,9.43906149 17.277779,9.28821022 16.371262,9.28821022 C15.4647452,9.28821022 14.631908,9.32670772 13.8727504,9.4037026 C13.8505477,8.08902589 13.7516296,7.06321489 13.5759961,6.32626956 C13.4003627,5.58932424 12.7880742,4.39135344 11.7391304,2.73235717 Z M3.05656274,0.380449588 C3.89631017,0.437464185 5.11149359,0.879853642 6.70211302,1.70761795 C3.4653556,6.03996616 1.43910284,7.89779442 0.623354705,7.28110263 C-0.192393427,6.66441091 0.00609524423,5.82683139 1.21882072,4.76836413 C0.626938926,4.76836413 0.330998029,4.45830173 0.330998029,3.83817694 C0.330998029,3.21805215 0.923622861,2.69494065 2.10887252,2.26884244 C1.28845387,2.26884244 0.878244548,2.0090385 0.878244548,1.4894306 C0.878244548,0.710018743 1.79694158,0.294927693 3.05656274,0.380449588 Z" id="path-9"></path>
        <path d="M13.2305643,12.1917908 L13.812362,9.83050253 C14.2237757,10.2609818 14.6819905,10.4966589 15.1870064,10.5375338 C15.6920223,10.5784087 16.3441697,10.4326019 17.1434485,10.1001135 C16.896989,10.8664023 16.4271695,11.4348202 15.7339902,11.8053672 C15.0903236,12.1494465 14.3248253,12.2850875 13.4374954,12.2122902 L13.2305643,12.1917908 L13.812362,9.83050253 L13.2305643,12.1917908 Z M11.7391304,2.73235717 C13.663835,2.79276803 15.2903423,3.37060432 16.6186523,4.46586603 C17.9469623,5.56112775 18.7549549,7.31942707 19.04263,9.74076395 C18.1682349,9.43906149 17.277779,9.28821022 16.371262,9.28821022 C15.4647452,9.28821022 14.631908,9.32670772 13.8727504,9.4037026 C13.8505477,8.08902589 13.7516296,7.06321489 13.5759961,6.32626956 C13.4003627,5.58932424 12.7880742,4.39135344 11.7391304,2.73235717 Z M3.05656274,0.380449588 C3.89631017,0.437464185 5.11149359,0.879853642 6.70211302,1.70761795 C3.4653556,6.03996616 1.43910284,7.89779442 0.623354705,7.28110263 C-0.192393427,6.66441091 0.00609524423,5.82683139 1.21882072,4.76836413 C0.626938926,4.76836413 0.330998029,4.45830173 0.330998029,3.83817694 C0.330998029,3.21805215 0.923622861,2.69494065 2.10887252,2.26884244 C1.28845387,2.26884244 0.878244548,2.0090385 0.878244548,1.4894306 C0.878244548,0.710018743 1.79694158,0.294927693 3.05656274,0.380449588 Z" id="path-11"></path>
        <path d="M13.2305643,12.1917908 L13.812362,9.83050253 C14.2237757,10.2609818 14.6819905,10.4966589 15.1870064,10.5375338 C15.6920223,10.5784087 16.3441697,10.4326019 17.1434485,10.1001135 C16.896989,10.8664023 16.4271695,11.4348202 15.7339902,11.8053672 C15.0903236,12.1494465 14.3248253,12.2850875 13.4374954,12.2122902 L13.2305643,12.1917908 L13.812362,9.83050253 L13.2305643,12.1917908 Z M11.7391304,2.73235717 C13.663835,2.79276803 15.2903423,3.37060432 16.6186523,4.46586603 C17.9469623,5.56112775 18.7549549,7.31942707 19.04263,9.74076395 C18.1682349,9.43906149 17.277779,9.28821022 16.371262,9.28821022 C15.4647452,9.28821022 14.631908,9.32670772 13.8727504,9.4037026 C13.8505477,8.08902589 13.7516296,7.06321489 13.5759961,6.32626956 C13.4003627,5.58932424 12.7880742,4.39135344 11.7391304,2.73235717 Z M3.05656274,0.380449588 C3.89631017,0.437464185 5.11149359,0.879853642 6.70211302,1.70761795 C3.4653556,6.03996616 1.43910284,7.89779442 0.623354705,7.28110263 C-0.192393427,6.66441091 0.00609524423,5.82683139 1.21882072,4.76836413 C0.626938926,4.76836413 0.330998029,4.45830173 0.330998029,3.83817694 C0.330998029,3.21805215 0.923622861,2.69494065 2.10887252,2.26884244 C1.28845387,2.26884244 0.878244548,2.0090385 0.878244548,1.4894306 C0.878244548,0.710018743 1.79694158,0.294927693 3.05656274,0.380449588 Z" id="path-13"></path>
        <path d="M7.40255602,0.395518389 C11.0044131,0.395518389 13.9242952,3.46556582 13.9242952,7.25266122 C13.9242952,8.75361306 13.46564,10.141931 12.6876528,11.2711265 L12.7069695,11.2778796 C12.3141337,12.080869 12.0689123,12.6597 11.9713053,13.0143728 C11.8736983,13.3690455 11.8457322,13.7828906 11.8874071,14.255908 C11.5411637,14.0758656 11.312811,13.8927526 11.2023492,13.7065689 C11.0918873,13.5203853 10.9846222,13.2246795 10.8805538,12.8194516 C10.6794457,13.4910446 10.5045522,13.9698634 10.3558734,14.255908 C10.2071947,14.5419526 9.94854072,14.8972402 9.57991154,15.3217707 C9.26408596,14.8868871 9.05993426,14.5315995 8.96745633,14.255908 C8.87497839,13.9802166 8.82113237,13.5663715 8.8059182,13.0143728 C7.90374137,14.5655914 7.17888496,15.5212192 6.63134896,15.8812558 C6.083813,16.2412925 5.21741293,16.3320084 4.03214875,16.1534034 L4.03214875,16.1534034 L3.74899207,12.9335918 C3.1873191,12.5334732 2.68813336,12.0436873 2.27003109,11.4837868 L0.896225152,12.1090391 C0.677310346,11.5742745 0.553483765,10.9824222 0.52474541,10.3334822 C0.496007054,9.68454224 0.619833635,8.71070955 0.896225152,7.41198407 L0.884018146,7.46957969 C0.881889241,7.39754789 0.880816917,7.32523624 0.880816917,7.25266122 C0.880816917,3.46556582 3.80069898,0.395518389 7.40255602,0.395518389 Z" id="path-15"></path>
        <ellipse id="path-17" cx="2.60869565" cy="2.87804082" rx="2.60869565" ry="2.6122449"></ellipse>
        <ellipse id="path-19" cx="2.60869565" cy="2.87804082" rx="2.60869565" ry="2.6122449"></ellipse>
        <ellipse id="path-21" cx="2.60869565" cy="2.87804082" rx="2.60869565" ry="2.6122449"></ellipse>
        <ellipse id="path-23" cx="2.60869565" cy="2.87804082" rx="2.60869565" ry="2.6122449"></ellipse>
        <path d="M0,18.0130241 C1.67351322,12.4540673 2.51026983,8.40999125 2.51026983,5.88079627 C2.51026983,2.08700376 4.82111392,-0.768225842 7.67862072,0.185005454 C10.5361275,1.13823675 11.4025083,4.96583028 8.80018154,9.68160411 C7.065297,12.8254533 4.13190316,15.6025933 0,18.0130241 Z" id="path-25"></path>
        <path d="M0,18.0130241 C1.67351322,12.4540673 2.51026983,8.40999125 2.51026983,5.88079627 C2.51026983,2.08700376 4.82111392,-0.768225842 7.67862072,0.185005454 C10.5361275,1.13823675 11.4025083,4.96583028 8.80018154,9.68160411 C7.065297,12.8254533 4.13190316,15.6025933 0,18.0130241 Z" id="path-27"></path>
    </defs>
    <g id="Integrations/Logotypes/Active/Tawk.to" stroke="none" stroke-width="1" fill="none" fill-rule="evenodd">
        <g id="Tawk" transform="translate(1.000000, 0.000000)">
            <g id="Group" transform="translate(12.540000, 26.330122)">
                <g id="tawk-a-link" fill="#F071A9" fill-rule="nonzero">
                    <path d="M0.413659137,2.71336054 C0.978897757,1.72155223 1.76800272,1.29385772 2.78097402,1.430277 C4.30043096,1.63490592 4.58440366,3.1046233 5.47628652,3.26390264 C6.36816937,3.42318198 6.36816937,0.312053146 3.80015498,0.0252227888 C2.08814538,-0.165997449 0.959313437,0.73004847 0.413659137,2.71336054 Z" id="tawk-a"></path>
                </g>
                <g id="Clipped">
                    <mask id="mask-2" fill="white">
                        <use xlink:href="#path-1"></use>
                    </mask>
                    <g id="tawk-a"></g>
                    <path d="M5.71954589,3.16281284 C5.68181649,3.16281284 5.84489805,2.78960408 5.79932136,2.27349963 C5.73531968,1.54875297 4.9278409,0.803780056 3.9488436,0.239838624 C2.83140496,-0.403850529 1.65931818,-0.342424063 0.432583266,0.424118019 C1.65086807,-0.789011546 2.69499305,-1.30326362 3.5649582,-1.11863819 C4.86990592,-0.841700048 6.69191521,1.21118812 6.73103329,1.7607854 C6.78817452,2.56360242 5.80248129,3.16281284 5.71954589,3.16281284 Z" id="Path" fill="#D15794" fill-rule="nonzero" mask="url(#mask-2)" transform="translate(3.583003, 1.003797) rotate(3.000000) translate(-3.583003, -1.003797) "></path>
                </g>
            </g>
            <g id="Group" transform="translate(8.165217, 8.711184)" fill-rule="nonzero">
                <path d="M3.60776155,-6.49639073e-14 L14.7747537,3.82270408 C16.0026749,9.31760202 15.6844417,13.4634354 13.820054,16.2602041 C11.9556662,19.0569728 7.34898157,20.2446145 -7.18266026e-14,19.8231293 C0.910527483,17.4057527 1.44940599,15.681759 1.61663553,14.651148 C2.26398775,10.6616117 2.04675255,7.9432785 2.69234035,6.63584183 C2.69234035,3.64734944 2.99748075,1.43540216 3.60776155,-6.49639073e-14 Z" id="Path" fill="#41B449"></path>
                <path d="M10.5392261,4.11141558 C8.18396697,11.9418254 7.6139186,16.3104596 8.82908105,17.2173181 C10.6518247,18.5776059 13.0720582,15.9840121 13.8785008,13.7714088 C14.6849435,11.5588056 14.68503,7.90938375 14.6243165,6.25885172 C14.583841,5.15849701 14.4670618,3.92352297 14.2739792,2.5539296 L11.3438787,2.01403341 L10.5392261,4.11141558 Z" id="Path" fill="#ABD598" opacity="0.4" transform="translate(11.428181, 9.804146) rotate(-1.000000) translate(-11.428181, -9.804146) "></path>
            </g>
            <g id="Group" transform="translate(11.887826, 26.758531)">
                <g id="tawk-c-link" fill="#F071A9" fill-rule="nonzero">
                    <path d="M-6.89303687e-14,2.71336054 C0.565238621,1.72155223 1.35434358,1.29385772 2.36731488,1.430277 C3.88677183,1.63490592 4.17074452,3.1046233 5.06262738,3.26390264 C5.95451023,3.42318198 5.95451023,0.312053146 3.38649584,0.0252227888 C1.67448624,-0.165997449 0.545654297,0.73004847 -6.89303687e-14,2.71336054 Z" id="tawk-c"></path>
                </g>
                <g id="Clipped">
                    <mask id="mask-4" fill="white">
                        <use xlink:href="#path-3"></use>
                    </mask>
                    <g id="tawk-c"></g>
                    <path d="M5.08905826,3.59933036 C4.99834717,3.59933036 5.43347106,1.38917452 3.7573879,0.423756377 C2.63999914,-0.219855715 1.32163976,-0.0741074155 -0.197690217,0.861001273 C1.0206762,-0.352219442 2.06483381,-0.86654767 2.93478261,-0.681983419 C4.23970581,-0.405137036 6.06156255,1.64762923 6.10064146,2.19722576 C6.15772548,3.00004172 5.17199335,3.59933036 5.08905826,3.59933036 Z" id="Path" fill="#D15794" fill-rule="nonzero" mask="url(#mask-4)"></path>
                </g>
            </g>
            <g id="Group" transform="translate(0.358696, 26.968816)">
                <g id="tawk-e-link" fill="#41B449" fill-rule="nonzero">
                    <path d="M0.0378621136,1.97283503 C-0.344112779,3.33813259 2.23672171,4.25411162 4.50441964,3.80160154 C5.65378266,3.57225073 7.70016757,2.88839563 10.6435743,1.75003623 C11.5717366,1.39107047 12.2300703,0.371521023 11.5528051,0.304887146 C8.40233446,-0.0050772588 6.05287259,-0.0786970024 4.50441964,0.0840279151 C1.6824276,0.380587407 0.419837006,0.607537467 0.0378621136,1.97283503 Z" id="tawk-e"></path>
                </g>
                <g id="Clipped">
                    <mask id="mask-6" fill="white">
                        <use xlink:href="#path-5"></use>
                    </mask>
                    <g id="tawk-e"></g>
                    <path d="M-1.00453444,0.442485132 C0.0282157895,2.12250088 1.39696013,2.96250875 3.10169858,2.96250875 C4.80643703,2.96250875 7.81659704,2.52442386 12.1321786,1.64825408 L9.4234547,3.97239856 C3.14115157,4.43287615 4.13002965e-14,4.66311494 8.8817842e-16,4.66311494 C-3.95239397e-14,4.66311494 -0.334844812,3.25623833 -1.00453444,0.442485132 Z" id="Path" fill="#16A64A" fill-rule="nonzero" mask="url(#mask-6)"></path>
                </g>
            </g>
            <g id="Group" transform="translate(10.234565, 0.283429)">
                <g id="tawk-g-link" fill="#F071A9" fill-rule="nonzero">
                    <path d="M13.2305643,12.1917908 L13.812362,9.83050253 C14.2237757,10.2609818 14.6819905,10.4966589 15.1870064,10.5375338 C15.6920223,10.5784087 16.3441697,10.4326019 17.1434485,10.1001135 C16.896989,10.8664023 16.4271695,11.4348202 15.7339902,11.8053672 C15.0903236,12.1494465 14.3248253,12.2850875 13.4374954,12.2122902 L13.2305643,12.1917908 L13.812362,9.83050253 L13.2305643,12.1917908 Z M11.7391304,2.73235717 C13.663835,2.79276803 15.2903423,3.37060432 16.6186523,4.46586603 C17.9469623,5.56112775 18.7549549,7.31942707 19.04263,9.74076395 C18.1682349,9.43906149 17.277779,9.28821022 16.371262,9.28821022 C15.4647452,9.28821022 14.631908,9.32670772 13.8727504,9.4037026 C13.8505477,8.08902589 13.7516296,7.06321489 13.5759961,6.32626956 C13.4003627,5.58932424 12.7880742,4.39135344 11.7391304,2.73235717 Z M3.05656274,0.380449588 C3.89631017,0.437464185 5.11149359,0.879853642 6.70211302,1.70761795 C3.4653556,6.03996616 1.43910284,7.89779442 0.623354705,7.28110263 C-0.192393427,6.66441091 0.00609524423,5.82683139 1.21882072,4.76836413 C0.626938926,4.76836413 0.330998029,4.45830173 0.330998029,3.83817694 C0.330998029,3.21805215 0.923622861,2.69494065 2.10887252,2.26884244 C1.28845387,2.26884244 0.878244548,2.0090385 0.878244548,1.4894306 C0.878244548,0.710018743 1.79694158,0.294927693 3.05656274,0.380449588 Z" id="tawk-g"></path>
                </g>
                <g id="Clipped">
                    <mask id="mask-8" fill="white">
                        <use xlink:href="#path-7"></use>
                    </mask>
                    <g id="tawk-g"></g>
                    <path d="M0.131276563,6.55945659 C1.04653994,7.11739892 1.88135465,6.94404356 2.6357207,6.03939064 L2.35478661,7.48185789 L-0.639796486,7.81610991 C-1.04101116,6.42039873 -0.783986811,6.00151428 0.131276563,6.55945659 Z" id="Path" fill="#D15794" fill-rule="nonzero" mask="url(#mask-8)"></path>
                </g>
                <g id="Clipped">
                    <mask id="mask-10" fill="white">
                        <use xlink:href="#path-9"></use>
                    </mask>
                    <g id="tawk-g"></g>
                    <path d="M9.78061193,2.85688963 C9.89658235,3.9222044 12.6393449,3.24073345 15.3908802,4.69992216 C16.8883645,5.49406503 18.3478512,7.75123977 19.7693402,11.4714464 L18.0588166,1.34899741 C12.3491759,0.601207513 9.58977437,1.10383826 9.78061193,2.85688963 Z" id="Path" fill="#FFFFFF" fill-rule="nonzero" opacity="0.2" mask="url(#mask-10)"></path>
                </g>
                <g id="Clipped">
                    <mask id="mask-12" fill="white">
                        <use xlink:href="#path-11"></use>
                    </mask>
                    <g id="tawk-g"></g>
                    <path d="M0.27513587,3.62068108 C0.385437385,3.62068108 0.45020062,4.22794726 1.50417162,4.22794726 C2.09699957,4.22794726 2.90974017,3.93842331 3.94239343,3.35937543 L4.25669795,4.22794726 C3.26452736,4.58822517 2.25190162,4.76836413 1.21882072,4.76836413 C0.18573982,4.76836413 -0.404046123,4.64030283 -0.550537109,4.38418023 C-0.1799741,3.8751808 0.0952502263,3.62068108 0.27513587,3.62068108 Z" id="Path" fill="#D15794" fill-rule="nonzero" mask="url(#mask-12)"></path>
                </g>
                <g id="Clipped">
                    <mask id="mask-14" fill="white">
                        <use xlink:href="#path-13"></use>
                    </mask>
                    <g id="tawk-g"></g>
                    <path d="M1.25030447,0.914935184 C0.900624995,1.70209846 1.26142063,2.07906176 2.33269136,2.04582511 C3.13150335,2.02104161 4.51689435,1.77259281 6.48886435,1.3004787 L6.54721347,1.55321651 C5.07324618,1.99689726 3.63999114,2.32779026 2.24744834,2.54589551 C0.854905558,2.76400075 0.1869719,2.72411593 0.243647377,2.42624102 L1.25030447,0.914935184 Z" id="Path" fill="#D15794" fill-rule="nonzero" mask="url(#mask-14)" transform="translate(3.393768, 1.799560) rotate(13.000000) translate(-3.393768, -1.799560) "></path>
                </g>
            </g>
            <g id="Group" transform="translate(10.858043, 1.236898)">
                <g id="tawk-i-link" fill="#CDCACA" fill-rule="nonzero">
                    <path d="M7.40255602,0.395518389 C11.0044131,0.395518389 13.9242952,3.46556582 13.9242952,7.25266122 C13.9242952,8.75361306 13.46564,10.141931 12.6876528,11.2711265 L12.7069695,11.2778796 C12.3141337,12.080869 12.0689123,12.6597 11.9713053,13.0143728 C11.8736983,13.3690455 11.8457322,13.7828906 11.8874071,14.255908 C11.5411637,14.0758656 11.312811,13.8927526 11.2023492,13.7065689 C11.0918873,13.5203853 10.9846222,13.2246795 10.8805538,12.8194516 C10.6794457,13.4910446 10.5045522,13.9698634 10.3558734,14.255908 C10.2071947,14.5419526 9.94854072,14.8972402 9.57991154,15.3217707 C9.26408596,14.8868871 9.05993426,14.5315995 8.96745633,14.255908 C8.87497839,13.9802166 8.82113237,13.5663715 8.8059182,13.0143728 C7.90374137,14.5655914 7.17888496,15.5212192 6.63134896,15.8812558 C6.083813,16.2412925 5.21741293,16.3320084 4.03214875,16.1534034 L4.03214875,16.1534034 L3.74899207,12.9335918 C3.1873191,12.5334732 2.68813336,12.0436873 2.27003109,11.4837868 L0.896225152,12.1090391 C0.677310346,11.5742745 0.553483765,10.9824222 0.52474541,10.3334822 C0.496007054,9.68454224 0.619833635,8.71070955 0.896225152,7.41198407 L0.884018146,7.46957969 C0.881889241,7.39754789 0.880816917,7.32523624 0.880816917,7.25266122 C0.880816917,3.46556582 3.80069898,0.395518389 7.40255602,0.395518389 Z" id="tawk-i"></path>
                </g>
                <g id="Clipped">
                    <mask id="mask-16" fill="white">
                        <use xlink:href="#path-15"></use>
                    </mask>
                    <g id="tawk-i"></g>
                    <path d="M11.1157758,1.27769313 C10.8718474,1.27769313 6.25679348,0.395518389 4.4825811,4.25038601 C3.29977284,6.82029773 3.77170729,9.41735719 5.89838442,12.0415643 L3.72440866,12.9753537 C2.6785675,13.3596647 1.8360411,13.4112842 1.19682945,13.1302122 C1.17908981,13.1224118 1.16136779,13.1143422 1.1436634,13.1060033 C1.13186046,13.1004441 0.533248026,12.4778802 -0.652173913,11.2383118 C-0.652173913,5.21907281 0.761877972,1.49405155 3.58998174,0.0632479807 C7.83213737,-2.08295737 11.3597041,1.27769313 11.1157758,1.27769313 Z" id="Path" fill="#979897" fill-rule="nonzero" mask="url(#mask-16)"></path>
                </g>
            </g>
            <g id="Group" transform="translate(16.756304, 3.904000)">
                <g id="tawk-k-link" fill="#FFFFFF" fill-rule="nonzero">
                    <ellipse id="tawk-k" cx="2.60869565" cy="2.87804082" rx="2.60869565" ry="2.6122449"></ellipse>
                </g>
                <g id="Clipped">
                    <mask id="mask-18" fill="white">
                        <use xlink:href="#path-17"></use>
                    </mask>
                    <g id="tawk-k"></g>
                    <path d="M-1.43363582e-14,0 L2.06682396,0.265857695 C1.15576344,0.905956976 0.646596835,1.66825243 0.53932414,2.55274407 C0.432051447,3.4372357 0.687059341,4.32781761 1.30434783,5.2244898 L-1.43363582e-14,5.2244898 L-1.43363582e-14,0 Z" id="Path" fill="#979897" fill-rule="nonzero" opacity="0.2" mask="url(#mask-18)"></path>
                </g>
                <g id="Clipped">
                    <mask id="mask-20" fill="white">
                        <use xlink:href="#path-19"></use>
                    </mask>
                    <g id="tawk-k"></g>
                    <ellipse id="Oval" fill="#975C1D" fill-rule="nonzero" mask="url(#mask-20)" cx="3.25891304" cy="2.88914286" rx="1.30434783" ry="1.30612245"></ellipse>
                </g>
                <g id="Clipped">
                    <mask id="mask-22" fill="white">
                        <use xlink:href="#path-21"></use>
                    </mask>
                    <g id="tawk-k"></g>
                    <ellipse id="Oval" fill="#1B1B1B" fill-rule="nonzero" mask="url(#mask-22)" cx="3.54065217" cy="2.75330612" rx="1" ry="1"></ellipse>
                </g>
                <g id="Clipped">
                    <mask id="mask-24" fill="white">
                        <use xlink:href="#path-23"></use>
                    </mask>
                    <g id="tawk-k"></g>
                    <ellipse id="Oval" fill="#FFFFFF" fill-rule="nonzero" mask="url(#mask-24)" cx="3.87130435" cy="2.50840816" rx="1" ry="1"></ellipse>
                </g>
            </g>
            <g id="Group" transform="translate(7.314130, 13.345959)">
                <g id="tawk-m-link" fill="#6BC168" fill-rule="nonzero">
                    <path d="M0,18.0130241 C1.67351322,12.4540673 2.51026983,8.40999125 2.51026983,5.88079627 C2.51026983,2.08700376 4.82111392,-0.768225842 7.67862072,0.185005454 C10.5361275,1.13823675 11.4025083,4.96583028 8.80018154,9.68160411 C7.065297,12.8254533 4.13190316,15.6025933 0,18.0130241 Z" id="tawk-m"></path>
                </g>
                <g id="Clipped">
                    <mask id="mask-26" fill="white">
                        <use xlink:href="#path-25"></use>
                    </mask>
                    <g id="tawk-m"></g>
                    <polygon id="Path" fill="#ABD598" fill-rule="nonzero" mask="url(#mask-26)" points="4.54369565 4.76538776 4.54369565 7.97387755 7.28217391 5.62873469 6.81652174 7.97387755 9.21521739 6.11004082 9.21521739 8.81959184 11.4997826 6.41502041 10.3865217 -1.59085714 2.46782609 1.14938776 2.46782609 6.41502041"></polygon>
                </g>
                <g id="Clipped">
                    <mask id="mask-28" fill="white">
                        <use xlink:href="#path-27"></use>
                    </mask>
                    <g id="tawk-m"></g>
                    <path d="M4.4408921e-16,18.000765 C3.38366708,13.9851732 5.52599579,10.9247282 6.42698612,8.81942994 C7.32797648,6.71413179 7.7497382,3.78319721 7.69227143,0.0266262714 L-1.30823806,-1.59107175 L-1.30823806,12.2592684 L4.4408921e-16,18.000765 Z" id="Path" fill="#FFFFFF" fill-rule="nonzero" opacity="0.2" mask="url(#mask-28)"></path>
                </g>
            </g>
        </g>
    </g>
</svg>