<?xml version="1.0" encoding="UTF-8"?>
<svg width="32px" height="32px" viewBox="0 0 32 32" version="1.1" xmlns="http://www.w3.org/2000/svg" xmlns:xlink="http://www.w3.org/1999/xlink">
    <!-- Generator: Sketch 61.2 (89653) - https://sketch.com -->
    <title>Integrations/Logotypes/Active/Tidio</title>
    <desc>Created with Sketch.</desc>
    <g id="Integrations/Logotypes/Active/Tidio" stroke="none" stroke-width="1" fill="none" fill-rule="evenodd">
        <g id="Tido" fill-rule="nonzero">
            <path d="M20.6030343,0.0550656756 C15.0977701,0.0550656756 10.4266368,3.97548111 9.42567967,9.39733227 C10.0929844,9.31391913 10.7602892,9.23050607 11.4275939,9.23050607 L11.4275939,9.23050607 C10.7602892,9.23050607 10.0929844,9.31391913 9.42567967,9.39733227 L9.42567967,9.39733227 C4.00382853,10.3982894 0.0834130947,15.0694227 0.0834130947,20.5746869 L0.0834130947,31.8354547 L11.4275939,31.8354547 C16.8494451,31.8354547 21.5205783,27.9984523 22.5215355,22.6600143 L20.6030343,22.6600143 C20.4918169,22.6600143 24.2732105,22.6600143 31.9472151,22.6600143 L31.9472151,11.3992465 C31.8638021,5.14326443 26.8590164,0.0550656756 20.6030343,0.0550656756 Z M9.25885347,11.3992465 C9.25885347,12.1499643 9.3422666,12.9006822 9.50909273,13.6514001 C9.3422666,12.9006822 9.25885347,12.1499643 9.25885347,11.3992465 L9.25885347,11.3992465 Z" id="Shape" fill="#135EEB"></path>
            <path d="M20.6030343,22.7434273 C14.3470523,22.7434273 9.25885347,17.7386417 9.25885347,11.4826596 C9.25885347,11.4826596 9.25885347,11.4826596 9.25885347,11.4826596 C9.25885347,10.8153549 9.3422666,10.1480501 9.42567967,9.48074533 C4.00382853,10.3982894 0.0834130947,15.0694227 0.0834130947,20.5746869 L0.0834130947,31.8354547 L11.4275939,31.8354547 C16.8494451,31.8354547 21.5205783,27.9984523 22.5215355,22.6600143 L20.6030343,22.6600143 L20.6030343,22.7434273 Z" id="Path" fill="#15C2FF"></path>
            <path d="M20.6030343,0.0550656756 C15.0977701,0.0550656756 10.4266368,3.97548111 9.42567967,9.39733227 C10.0929844,9.31391913 10.7602892,9.23050607 11.4275939,9.23050607 C17.683576,9.23050607 22.7717748,14.2352917 22.7717748,20.4912738 C22.7717748,21.2419917 22.6883617,21.9092964 22.6049486,22.6600143 L31.9472151,22.6600143 L31.9472151,11.3992465 C31.8638021,5.14326443 26.8590164,0.0550656756 20.6030343,0.0550656756 Z" id="Path" fill="#2C82FF"></path>
        </g>
    </g>
</svg>