<svg xmlns="http://www.w3.org/2000/svg" xmlns:xlink="http://www.w3.org/1999/xlink" width="221" height="258" viewBox="0 0 221 258">
  <defs>
    <clipPath id="clip-path">
      <rect width="221" height="258" fill="none"/>
    </clipPath>
  </defs>
  <g id="Repeat_Grid_3" data-name="Repeat Grid 3" clip-path="url(#clip-path)">
    <g transform="translate(-829 -5854)">
      <circle id="Ellipse_164" data-name="Ellipse 164" cx="2.5" cy="2.5" r="2.5" transform="translate(829 5854)" fill="#b7bbc4"/>
      <g id="Ellipse_165" data-name="Ellipse 165" transform="translate(854 5854)" fill="none" stroke="#e5dde3" stroke-width="1">
        <circle cx="2.5" cy="2.5" r="2.5" stroke="none"/>
        <circle cx="2.5" cy="2.5" r="2" fill="none"/>
      </g>
    </g>
    <g transform="translate(-779 -5854)">
      <circle id="Ellipse_164-2" data-name="Ellipse 164" cx="2.5" cy="2.5" r="2.5" transform="translate(829 5854)" fill="#b7bbc4"/>
      <g id="Ellipse_165-2" data-name="Ellipse 165" transform="translate(854 5854)" fill="none" stroke="#e5dde3" stroke-width="1">
        <circle cx="2.5" cy="2.5" r="2.5" stroke="none"/>
        <circle cx="2.5" cy="2.5" r="2" fill="none"/>
      </g>
    </g>
    <g transform="translate(-729 -5854)">
      <circle id="Ellipse_164-3" data-name="Ellipse 164" cx="2.5" cy="2.5" r="2.5" transform="translate(829 5854)" fill="#b7bbc4"/>
      <g id="Ellipse_165-3" data-name="Ellipse 165" transform="translate(854 5854)" fill="none" stroke="#e5dde3" stroke-width="1">
        <circle cx="2.5" cy="2.5" r="2.5" stroke="none"/>
        <circle cx="2.5" cy="2.5" r="2" fill="none"/>
      </g>
    </g>
    <g transform="translate(-679 -5854)">
      <circle id="Ellipse_164-4" data-name="Ellipse 164" cx="2.5" cy="2.5" r="2.5" transform="translate(829 5854)" fill="#b7bbc4"/>
      <g id="Ellipse_165-4" data-name="Ellipse 165" transform="translate(854 5854)" fill="none" stroke="#e5dde3" stroke-width="1">
        <circle cx="2.5" cy="2.5" r="2.5" stroke="none"/>
        <circle cx="2.5" cy="2.5" r="2" fill="none"/>
      </g>
    </g>
    <g transform="translate(-629 -5854)">
      <circle id="Ellipse_164-5" data-name="Ellipse 164" cx="2.5" cy="2.5" r="2.5" transform="translate(829 5854)" fill="#b7bbc4"/>
      <g id="Ellipse_165-5" data-name="Ellipse 165" transform="translate(854 5854)" fill="none" stroke="#e5dde3" stroke-width="1">
        <circle cx="2.5" cy="2.5" r="2.5" stroke="none"/>
        <circle cx="2.5" cy="2.5" r="2" fill="none"/>
      </g>
    </g>
    <g transform="translate(-829 -5829)">
      <circle id="Ellipse_164-6" data-name="Ellipse 164" cx="2.5" cy="2.5" r="2.5" transform="translate(829 5854)" fill="#b7bbc4"/>
      <g id="Ellipse_165-6" data-name="Ellipse 165" transform="translate(854 5854)" fill="none" stroke="#e5dde3" stroke-width="1">
        <circle cx="2.5" cy="2.5" r="2.5" stroke="none"/>
        <circle cx="2.5" cy="2.5" r="2" fill="none"/>
      </g>
    </g>
    <g transform="translate(-779 -5829)">
      <circle id="Ellipse_164-7" data-name="Ellipse 164" cx="2.5" cy="2.5" r="2.5" transform="translate(829 5854)" fill="#b7bbc4"/>
      <g id="Ellipse_165-7" data-name="Ellipse 165" transform="translate(854 5854)" fill="none" stroke="#e5dde3" stroke-width="1">
        <circle cx="2.5" cy="2.5" r="2.5" stroke="none"/>
        <circle cx="2.5" cy="2.5" r="2" fill="none"/>
      </g>
    </g>
    <g transform="translate(-729 -5829)">
      <circle id="Ellipse_164-8" data-name="Ellipse 164" cx="2.5" cy="2.5" r="2.5" transform="translate(829 5854)" fill="#b7bbc4"/>
      <g id="Ellipse_165-8" data-name="Ellipse 165" transform="translate(854 5854)" fill="none" stroke="#e5dde3" stroke-width="1">
        <circle cx="2.5" cy="2.5" r="2.5" stroke="none"/>
        <circle cx="2.5" cy="2.5" r="2" fill="none"/>
      </g>
    </g>
    <g transform="translate(-679 -5829)">
      <circle id="Ellipse_164-9" data-name="Ellipse 164" cx="2.5" cy="2.5" r="2.5" transform="translate(829 5854)" fill="#b7bbc4"/>
      <g id="Ellipse_165-9" data-name="Ellipse 165" transform="translate(854 5854)" fill="none" stroke="#e5dde3" stroke-width="1">
        <circle cx="2.5" cy="2.5" r="2.5" stroke="none"/>
        <circle cx="2.5" cy="2.5" r="2" fill="none"/>
      </g>
    </g>
    <g transform="translate(-629 -5829)">
      <circle id="Ellipse_164-10" data-name="Ellipse 164" cx="2.5" cy="2.5" r="2.5" transform="translate(829 5854)" fill="#b7bbc4"/>
      <g id="Ellipse_165-10" data-name="Ellipse 165" transform="translate(854 5854)" fill="none" stroke="#e5dde3" stroke-width="1">
        <circle cx="2.5" cy="2.5" r="2.5" stroke="none"/>
        <circle cx="2.5" cy="2.5" r="2" fill="none"/>
      </g>
    </g>
    <g transform="translate(-829 -5804)">
      <circle id="Ellipse_164-11" data-name="Ellipse 164" cx="2.5" cy="2.5" r="2.5" transform="translate(829 5854)" fill="#b7bbc4"/>
      <g id="Ellipse_165-11" data-name="Ellipse 165" transform="translate(854 5854)" fill="none" stroke="#e5dde3" stroke-width="1">
        <circle cx="2.5" cy="2.5" r="2.5" stroke="none"/>
        <circle cx="2.5" cy="2.5" r="2" fill="none"/>
      </g>
    </g>
    <g transform="translate(-779 -5804)">
      <circle id="Ellipse_164-12" data-name="Ellipse 164" cx="2.5" cy="2.5" r="2.5" transform="translate(829 5854)" fill="#b7bbc4"/>
      <g id="Ellipse_165-12" data-name="Ellipse 165" transform="translate(854 5854)" fill="none" stroke="#e5dde3" stroke-width="1">
        <circle cx="2.5" cy="2.5" r="2.5" stroke="none"/>
        <circle cx="2.5" cy="2.5" r="2" fill="none"/>
      </g>
    </g>
    <g transform="translate(-729 -5804)">
      <circle id="Ellipse_164-13" data-name="Ellipse 164" cx="2.5" cy="2.5" r="2.5" transform="translate(829 5854)" fill="#b7bbc4"/>
      <g id="Ellipse_165-13" data-name="Ellipse 165" transform="translate(854 5854)" fill="none" stroke="#e5dde3" stroke-width="1">
        <circle cx="2.5" cy="2.5" r="2.5" stroke="none"/>
        <circle cx="2.5" cy="2.5" r="2" fill="none"/>
      </g>
    </g>
    <g transform="translate(-679 -5804)">
      <circle id="Ellipse_164-14" data-name="Ellipse 164" cx="2.5" cy="2.5" r="2.5" transform="translate(829 5854)" fill="#b7bbc4"/>
      <g id="Ellipse_165-14" data-name="Ellipse 165" transform="translate(854 5854)" fill="none" stroke="#e5dde3" stroke-width="1">
        <circle cx="2.5" cy="2.5" r="2.5" stroke="none"/>
        <circle cx="2.5" cy="2.5" r="2" fill="none"/>
      </g>
    </g>
    <g transform="translate(-629 -5804)">
      <circle id="Ellipse_164-15" data-name="Ellipse 164" cx="2.5" cy="2.5" r="2.5" transform="translate(829 5854)" fill="#b7bbc4"/>
      <g id="Ellipse_165-15" data-name="Ellipse 165" transform="translate(854 5854)" fill="none" stroke="#e5dde3" stroke-width="1">
        <circle cx="2.5" cy="2.5" r="2.5" stroke="none"/>
        <circle cx="2.5" cy="2.5" r="2" fill="none"/>
      </g>
    </g>
    <g transform="translate(-829 -5779)">
      <circle id="Ellipse_164-16" data-name="Ellipse 164" cx="2.5" cy="2.5" r="2.5" transform="translate(829 5854)" fill="#b7bbc4"/>
      <g id="Ellipse_165-16" data-name="Ellipse 165" transform="translate(854 5854)" fill="none" stroke="#e5dde3" stroke-width="1">
        <circle cx="2.5" cy="2.5" r="2.5" stroke="none"/>
        <circle cx="2.5" cy="2.5" r="2" fill="none"/>
      </g>
    </g>
    <g transform="translate(-779 -5779)">
      <circle id="Ellipse_164-17" data-name="Ellipse 164" cx="2.5" cy="2.5" r="2.5" transform="translate(829 5854)" fill="#b7bbc4"/>
      <g id="Ellipse_165-17" data-name="Ellipse 165" transform="translate(854 5854)" fill="none" stroke="#e5dde3" stroke-width="1">
        <circle cx="2.5" cy="2.5" r="2.5" stroke="none"/>
        <circle cx="2.5" cy="2.5" r="2" fill="none"/>
      </g>
    </g>
    <g transform="translate(-729 -5779)">
      <circle id="Ellipse_164-18" data-name="Ellipse 164" cx="2.5" cy="2.5" r="2.5" transform="translate(829 5854)" fill="#b7bbc4"/>
      <g id="Ellipse_165-18" data-name="Ellipse 165" transform="translate(854 5854)" fill="none" stroke="#e5dde3" stroke-width="1">
        <circle cx="2.5" cy="2.5" r="2.5" stroke="none"/>
        <circle cx="2.5" cy="2.5" r="2" fill="none"/>
      </g>
    </g>
    <g transform="translate(-679 -5779)">
      <circle id="Ellipse_164-19" data-name="Ellipse 164" cx="2.5" cy="2.5" r="2.5" transform="translate(829 5854)" fill="#b7bbc4"/>
      <g id="Ellipse_165-19" data-name="Ellipse 165" transform="translate(854 5854)" fill="none" stroke="#e5dde3" stroke-width="1">
        <circle cx="2.5" cy="2.5" r="2.5" stroke="none"/>
        <circle cx="2.5" cy="2.5" r="2" fill="none"/>
      </g>
    </g>
    <g transform="translate(-629 -5779)">
      <circle id="Ellipse_164-20" data-name="Ellipse 164" cx="2.5" cy="2.5" r="2.5" transform="translate(829 5854)" fill="#b7bbc4"/>
      <g id="Ellipse_165-20" data-name="Ellipse 165" transform="translate(854 5854)" fill="none" stroke="#e5dde3" stroke-width="1">
        <circle cx="2.5" cy="2.5" r="2.5" stroke="none"/>
        <circle cx="2.5" cy="2.5" r="2" fill="none"/>
      </g>
    </g>
    <g transform="translate(-829 -5754)">
      <circle id="Ellipse_164-21" data-name="Ellipse 164" cx="2.5" cy="2.5" r="2.5" transform="translate(829 5854)" fill="#b7bbc4"/>
      <g id="Ellipse_165-21" data-name="Ellipse 165" transform="translate(854 5854)" fill="none" stroke="#e5dde3" stroke-width="1">
        <circle cx="2.5" cy="2.5" r="2.5" stroke="none"/>
        <circle cx="2.5" cy="2.5" r="2" fill="none"/>
      </g>
    </g>
    <g transform="translate(-779 -5754)">
      <circle id="Ellipse_164-22" data-name="Ellipse 164" cx="2.5" cy="2.5" r="2.5" transform="translate(829 5854)" fill="#b7bbc4"/>
      <g id="Ellipse_165-22" data-name="Ellipse 165" transform="translate(854 5854)" fill="none" stroke="#e5dde3" stroke-width="1">
        <circle cx="2.5" cy="2.5" r="2.5" stroke="none"/>
        <circle cx="2.5" cy="2.5" r="2" fill="none"/>
      </g>
    </g>
    <g transform="translate(-729 -5754)">
      <circle id="Ellipse_164-23" data-name="Ellipse 164" cx="2.5" cy="2.5" r="2.5" transform="translate(829 5854)" fill="#b7bbc4"/>
      <g id="Ellipse_165-23" data-name="Ellipse 165" transform="translate(854 5854)" fill="none" stroke="#e5dde3" stroke-width="1">
        <circle cx="2.5" cy="2.5" r="2.5" stroke="none"/>
        <circle cx="2.5" cy="2.5" r="2" fill="none"/>
      </g>
    </g>
    <g transform="translate(-679 -5754)">
      <circle id="Ellipse_164-24" data-name="Ellipse 164" cx="2.5" cy="2.5" r="2.5" transform="translate(829 5854)" fill="#b7bbc4"/>
      <g id="Ellipse_165-24" data-name="Ellipse 165" transform="translate(854 5854)" fill="none" stroke="#e5dde3" stroke-width="1">
        <circle cx="2.5" cy="2.5" r="2.5" stroke="none"/>
        <circle cx="2.5" cy="2.5" r="2" fill="none"/>
      </g>
    </g>
    <g transform="translate(-629 -5754)">
      <circle id="Ellipse_164-25" data-name="Ellipse 164" cx="2.5" cy="2.5" r="2.5" transform="translate(829 5854)" fill="#b7bbc4"/>
      <g id="Ellipse_165-25" data-name="Ellipse 165" transform="translate(854 5854)" fill="none" stroke="#e5dde3" stroke-width="1">
        <circle cx="2.5" cy="2.5" r="2.5" stroke="none"/>
        <circle cx="2.5" cy="2.5" r="2" fill="none"/>
      </g>
    </g>
    <g transform="translate(-829 -5729)">
      <circle id="Ellipse_164-26" data-name="Ellipse 164" cx="2.5" cy="2.5" r="2.5" transform="translate(829 5854)" fill="#b7bbc4"/>
      <g id="Ellipse_165-26" data-name="Ellipse 165" transform="translate(854 5854)" fill="none" stroke="#e5dde3" stroke-width="1">
        <circle cx="2.5" cy="2.5" r="2.5" stroke="none"/>
        <circle cx="2.5" cy="2.5" r="2" fill="none"/>
      </g>
    </g>
    <g transform="translate(-779 -5729)">
      <circle id="Ellipse_164-27" data-name="Ellipse 164" cx="2.5" cy="2.5" r="2.5" transform="translate(829 5854)" fill="#b7bbc4"/>
      <g id="Ellipse_165-27" data-name="Ellipse 165" transform="translate(854 5854)" fill="none" stroke="#e5dde3" stroke-width="1">
        <circle cx="2.5" cy="2.5" r="2.5" stroke="none"/>
        <circle cx="2.5" cy="2.5" r="2" fill="none"/>
      </g>
    </g>
    <g transform="translate(-729 -5729)">
      <circle id="Ellipse_164-28" data-name="Ellipse 164" cx="2.5" cy="2.5" r="2.5" transform="translate(829 5854)" fill="#b7bbc4"/>
      <g id="Ellipse_165-28" data-name="Ellipse 165" transform="translate(854 5854)" fill="none" stroke="#e5dde3" stroke-width="1">
        <circle cx="2.5" cy="2.5" r="2.5" stroke="none"/>
        <circle cx="2.5" cy="2.5" r="2" fill="none"/>
      </g>
    </g>
    <g transform="translate(-679 -5729)">
      <circle id="Ellipse_164-29" data-name="Ellipse 164" cx="2.5" cy="2.5" r="2.5" transform="translate(829 5854)" fill="#b7bbc4"/>
      <g id="Ellipse_165-29" data-name="Ellipse 165" transform="translate(854 5854)" fill="none" stroke="#e5dde3" stroke-width="1">
        <circle cx="2.5" cy="2.5" r="2.5" stroke="none"/>
        <circle cx="2.5" cy="2.5" r="2" fill="none"/>
      </g>
    </g>
    <g transform="translate(-629 -5729)">
      <circle id="Ellipse_164-30" data-name="Ellipse 164" cx="2.5" cy="2.5" r="2.5" transform="translate(829 5854)" fill="#b7bbc4"/>
      <g id="Ellipse_165-30" data-name="Ellipse 165" transform="translate(854 5854)" fill="none" stroke="#e5dde3" stroke-width="1">
        <circle cx="2.5" cy="2.5" r="2.5" stroke="none"/>
        <circle cx="2.5" cy="2.5" r="2" fill="none"/>
      </g>
    </g>
    <g transform="translate(-829 -5704)">
      <circle id="Ellipse_164-31" data-name="Ellipse 164" cx="2.5" cy="2.5" r="2.5" transform="translate(829 5854)" fill="#b7bbc4"/>
      <g id="Ellipse_165-31" data-name="Ellipse 165" transform="translate(854 5854)" fill="none" stroke="#e5dde3" stroke-width="1">
        <circle cx="2.5" cy="2.5" r="2.5" stroke="none"/>
        <circle cx="2.5" cy="2.5" r="2" fill="none"/>
      </g>
    </g>
    <g transform="translate(-779 -5704)">
      <circle id="Ellipse_164-32" data-name="Ellipse 164" cx="2.5" cy="2.5" r="2.5" transform="translate(829 5854)" fill="#b7bbc4"/>
      <g id="Ellipse_165-32" data-name="Ellipse 165" transform="translate(854 5854)" fill="none" stroke="#e5dde3" stroke-width="1">
        <circle cx="2.5" cy="2.5" r="2.5" stroke="none"/>
        <circle cx="2.5" cy="2.5" r="2" fill="none"/>
      </g>
    </g>
    <g transform="translate(-729 -5704)">
      <circle id="Ellipse_164-33" data-name="Ellipse 164" cx="2.5" cy="2.5" r="2.5" transform="translate(829 5854)" fill="#b7bbc4"/>
      <g id="Ellipse_165-33" data-name="Ellipse 165" transform="translate(854 5854)" fill="none" stroke="#e5dde3" stroke-width="1">
        <circle cx="2.5" cy="2.5" r="2.5" stroke="none"/>
        <circle cx="2.5" cy="2.5" r="2" fill="none"/>
      </g>
    </g>
    <g transform="translate(-679 -5704)">
      <circle id="Ellipse_164-34" data-name="Ellipse 164" cx="2.5" cy="2.5" r="2.5" transform="translate(829 5854)" fill="#b7bbc4"/>
      <g id="Ellipse_165-34" data-name="Ellipse 165" transform="translate(854 5854)" fill="none" stroke="#e5dde3" stroke-width="1">
        <circle cx="2.5" cy="2.5" r="2.5" stroke="none"/>
        <circle cx="2.5" cy="2.5" r="2" fill="none"/>
      </g>
    </g>
    <g transform="translate(-629 -5704)">
      <circle id="Ellipse_164-35" data-name="Ellipse 164" cx="2.5" cy="2.5" r="2.5" transform="translate(829 5854)" fill="#b7bbc4"/>
      <g id="Ellipse_165-35" data-name="Ellipse 165" transform="translate(854 5854)" fill="none" stroke="#e5dde3" stroke-width="1">
        <circle cx="2.5" cy="2.5" r="2.5" stroke="none"/>
        <circle cx="2.5" cy="2.5" r="2" fill="none"/>
      </g>
    </g>
    <g transform="translate(-829 -5679)">
      <circle id="Ellipse_164-36" data-name="Ellipse 164" cx="2.5" cy="2.5" r="2.5" transform="translate(829 5854)" fill="#b7bbc4"/>
      <g id="Ellipse_165-36" data-name="Ellipse 165" transform="translate(854 5854)" fill="none" stroke="#e5dde3" stroke-width="1">
        <circle cx="2.5" cy="2.5" r="2.5" stroke="none"/>
        <circle cx="2.5" cy="2.5" r="2" fill="none"/>
      </g>
    </g>
    <g transform="translate(-779 -5679)">
      <circle id="Ellipse_164-37" data-name="Ellipse 164" cx="2.5" cy="2.5" r="2.5" transform="translate(829 5854)" fill="#b7bbc4"/>
      <g id="Ellipse_165-37" data-name="Ellipse 165" transform="translate(854 5854)" fill="none" stroke="#e5dde3" stroke-width="1">
        <circle cx="2.5" cy="2.5" r="2.5" stroke="none"/>
        <circle cx="2.5" cy="2.5" r="2" fill="none"/>
      </g>
    </g>
    <g transform="translate(-729 -5679)">
      <circle id="Ellipse_164-38" data-name="Ellipse 164" cx="2.5" cy="2.5" r="2.5" transform="translate(829 5854)" fill="#b7bbc4"/>
      <g id="Ellipse_165-38" data-name="Ellipse 165" transform="translate(854 5854)" fill="none" stroke="#e5dde3" stroke-width="1">
        <circle cx="2.5" cy="2.5" r="2.5" stroke="none"/>
        <circle cx="2.5" cy="2.5" r="2" fill="none"/>
      </g>
    </g>
    <g transform="translate(-679 -5679)">
      <circle id="Ellipse_164-39" data-name="Ellipse 164" cx="2.5" cy="2.5" r="2.5" transform="translate(829 5854)" fill="#b7bbc4"/>
      <g id="Ellipse_165-39" data-name="Ellipse 165" transform="translate(854 5854)" fill="none" stroke="#e5dde3" stroke-width="1">
        <circle cx="2.5" cy="2.5" r="2.5" stroke="none"/>
        <circle cx="2.5" cy="2.5" r="2" fill="none"/>
      </g>
    </g>
    <g transform="translate(-629 -5679)">
      <circle id="Ellipse_164-40" data-name="Ellipse 164" cx="2.5" cy="2.5" r="2.5" transform="translate(829 5854)" fill="#b7bbc4"/>
      <g id="Ellipse_165-40" data-name="Ellipse 165" transform="translate(854 5854)" fill="none" stroke="#e5dde3" stroke-width="1">
        <circle cx="2.5" cy="2.5" r="2.5" stroke="none"/>
        <circle cx="2.5" cy="2.5" r="2" fill="none"/>
      </g>
    </g>
    <g transform="translate(-829 -5654)">
      <circle id="Ellipse_164-41" data-name="Ellipse 164" cx="2.5" cy="2.5" r="2.5" transform="translate(829 5854)" fill="#b7bbc4"/>
      <g id="Ellipse_165-41" data-name="Ellipse 165" transform="translate(854 5854)" fill="none" stroke="#e5dde3" stroke-width="1">
        <circle cx="2.5" cy="2.5" r="2.5" stroke="none"/>
        <circle cx="2.5" cy="2.5" r="2" fill="none"/>
      </g>
    </g>
    <g transform="translate(-779 -5654)">
      <circle id="Ellipse_164-42" data-name="Ellipse 164" cx="2.5" cy="2.5" r="2.5" transform="translate(829 5854)" fill="#b7bbc4"/>
      <g id="Ellipse_165-42" data-name="Ellipse 165" transform="translate(854 5854)" fill="none" stroke="#e5dde3" stroke-width="1">
        <circle cx="2.5" cy="2.5" r="2.5" stroke="none"/>
        <circle cx="2.5" cy="2.5" r="2" fill="none"/>
      </g>
    </g>
    <g transform="translate(-729 -5654)">
      <circle id="Ellipse_164-43" data-name="Ellipse 164" cx="2.5" cy="2.5" r="2.5" transform="translate(829 5854)" fill="#b7bbc4"/>
      <g id="Ellipse_165-43" data-name="Ellipse 165" transform="translate(854 5854)" fill="none" stroke="#e5dde3" stroke-width="1">
        <circle cx="2.5" cy="2.5" r="2.5" stroke="none"/>
        <circle cx="2.5" cy="2.5" r="2" fill="none"/>
      </g>
    </g>
    <g transform="translate(-679 -5654)">
      <circle id="Ellipse_164-44" data-name="Ellipse 164" cx="2.5" cy="2.5" r="2.5" transform="translate(829 5854)" fill="#b7bbc4"/>
      <g id="Ellipse_165-44" data-name="Ellipse 165" transform="translate(854 5854)" fill="none" stroke="#e5dde3" stroke-width="1">
        <circle cx="2.5" cy="2.5" r="2.5" stroke="none"/>
        <circle cx="2.5" cy="2.5" r="2" fill="none"/>
      </g>
    </g>
    <g transform="translate(-629 -5654)">
      <circle id="Ellipse_164-45" data-name="Ellipse 164" cx="2.5" cy="2.5" r="2.5" transform="translate(829 5854)" fill="#b7bbc4"/>
      <g id="Ellipse_165-45" data-name="Ellipse 165" transform="translate(854 5854)" fill="none" stroke="#e5dde3" stroke-width="1">
        <circle cx="2.5" cy="2.5" r="2.5" stroke="none"/>
        <circle cx="2.5" cy="2.5" r="2" fill="none"/>
      </g>
    </g>
    <g transform="translate(-829 -5629)">
      <circle id="Ellipse_164-46" data-name="Ellipse 164" cx="2.5" cy="2.5" r="2.5" transform="translate(829 5854)" fill="#b7bbc4"/>
      <g id="Ellipse_165-46" data-name="Ellipse 165" transform="translate(854 5854)" fill="none" stroke="#e5dde3" stroke-width="1">
        <circle cx="2.5" cy="2.5" r="2.5" stroke="none"/>
        <circle cx="2.5" cy="2.5" r="2" fill="none"/>
      </g>
    </g>
    <g transform="translate(-779 -5629)">
      <circle id="Ellipse_164-47" data-name="Ellipse 164" cx="2.5" cy="2.5" r="2.5" transform="translate(829 5854)" fill="#b7bbc4"/>
      <g id="Ellipse_165-47" data-name="Ellipse 165" transform="translate(854 5854)" fill="none" stroke="#e5dde3" stroke-width="1">
        <circle cx="2.5" cy="2.5" r="2.5" stroke="none"/>
        <circle cx="2.5" cy="2.5" r="2" fill="none"/>
      </g>
    </g>
    <g transform="translate(-729 -5629)">
      <circle id="Ellipse_164-48" data-name="Ellipse 164" cx="2.5" cy="2.5" r="2.5" transform="translate(829 5854)" fill="#b7bbc4"/>
      <g id="Ellipse_165-48" data-name="Ellipse 165" transform="translate(854 5854)" fill="none" stroke="#e5dde3" stroke-width="1">
        <circle cx="2.5" cy="2.5" r="2.5" stroke="none"/>
        <circle cx="2.5" cy="2.5" r="2" fill="none"/>
      </g>
    </g>
    <g transform="translate(-679 -5629)">
      <circle id="Ellipse_164-49" data-name="Ellipse 164" cx="2.5" cy="2.5" r="2.5" transform="translate(829 5854)" fill="#b7bbc4"/>
      <g id="Ellipse_165-49" data-name="Ellipse 165" transform="translate(854 5854)" fill="none" stroke="#e5dde3" stroke-width="1">
        <circle cx="2.5" cy="2.5" r="2.5" stroke="none"/>
        <circle cx="2.5" cy="2.5" r="2" fill="none"/>
      </g>
    </g>
    <g transform="translate(-629 -5629)">
      <circle id="Ellipse_164-50" data-name="Ellipse 164" cx="2.5" cy="2.5" r="2.5" transform="translate(829 5854)" fill="#b7bbc4"/>
      <g id="Ellipse_165-50" data-name="Ellipse 165" transform="translate(854 5854)" fill="none" stroke="#e5dde3" stroke-width="1">
        <circle cx="2.5" cy="2.5" r="2.5" stroke="none"/>
        <circle cx="2.5" cy="2.5" r="2" fill="none"/>
      </g>
    </g>
    <g transform="translate(-829 -5604)">
      <circle id="Ellipse_164-51" data-name="Ellipse 164" cx="2.5" cy="2.5" r="2.5" transform="translate(829 5854)" fill="#b7bbc4"/>
      <g id="Ellipse_165-51" data-name="Ellipse 165" transform="translate(854 5854)" fill="none" stroke="#e5dde3" stroke-width="1">
        <circle cx="2.5" cy="2.5" r="2.5" stroke="none"/>
        <circle cx="2.5" cy="2.5" r="2" fill="none"/>
      </g>
    </g>
    <g transform="translate(-779 -5604)">
      <circle id="Ellipse_164-52" data-name="Ellipse 164" cx="2.5" cy="2.5" r="2.5" transform="translate(829 5854)" fill="#b7bbc4"/>
      <g id="Ellipse_165-52" data-name="Ellipse 165" transform="translate(854 5854)" fill="none" stroke="#e5dde3" stroke-width="1">
        <circle cx="2.5" cy="2.5" r="2.5" stroke="none"/>
        <circle cx="2.5" cy="2.5" r="2" fill="none"/>
      </g>
    </g>
    <g transform="translate(-729 -5604)">
      <circle id="Ellipse_164-53" data-name="Ellipse 164" cx="2.5" cy="2.5" r="2.5" transform="translate(829 5854)" fill="#b7bbc4"/>
      <g id="Ellipse_165-53" data-name="Ellipse 165" transform="translate(854 5854)" fill="none" stroke="#e5dde3" stroke-width="1">
        <circle cx="2.5" cy="2.5" r="2.5" stroke="none"/>
        <circle cx="2.5" cy="2.5" r="2" fill="none"/>
      </g>
    </g>
    <g transform="translate(-679 -5604)">
      <circle id="Ellipse_164-54" data-name="Ellipse 164" cx="2.5" cy="2.5" r="2.5" transform="translate(829 5854)" fill="#b7bbc4"/>
      <g id="Ellipse_165-54" data-name="Ellipse 165" transform="translate(854 5854)" fill="none" stroke="#e5dde3" stroke-width="1">
        <circle cx="2.5" cy="2.5" r="2.5" stroke="none"/>
        <circle cx="2.5" cy="2.5" r="2" fill="none"/>
      </g>
    </g>
    <g transform="translate(-629 -5604)">
      <circle id="Ellipse_164-55" data-name="Ellipse 164" cx="2.5" cy="2.5" r="2.5" transform="translate(829 5854)" fill="#b7bbc4"/>
      <g id="Ellipse_165-55" data-name="Ellipse 165" transform="translate(854 5854)" fill="none" stroke="#e5dde3" stroke-width="1">
        <circle cx="2.5" cy="2.5" r="2.5" stroke="none"/>
        <circle cx="2.5" cy="2.5" r="2" fill="none"/>
      </g>
    </g>
  </g>
</svg>
